# This file uses centimeters as units for non-parametric coordinates.

mtllib Mirror Remodel.mtl
g default
v -1.512682 0.015224 -3.107386
v 1.512682 0.015224 -3.107386
v -1.512682 6.375393 -2.424992
v 1.512682 6.375393 -2.424992
v -1.512682 6.472056 -2.564648
v 1.512682 6.472056 -2.564648
v -1.512682 0.033614 -3.276233
v 1.512682 0.033614 -3.276233
vt 0.704467 0.038521
vt 0.916092 0.037938
vt 0.705701 0.485972
vt 0.917326 0.485388
vt 0.705733 0.497852
vt 0.917359 0.497269
vt 0.706983 0.950967
vt 0.918609 0.950383
vt 0.707016 0.962847
vt 0.918641 0.962264
vt 0.927973 0.037924
vt 0.927776 0.491040
vt 0.692586 0.038573
vt 0.695282 0.491681
vn 0.000000 -0.106679 0.994294
vn 0.000000 -0.106679 0.994294
vn 0.000000 -0.106679 0.994294
vn 0.000000 -0.106679 0.994294
vn 0.000000 0.822255 0.569119
vn 0.000000 0.822255 0.569119
vn 0.000000 0.822255 0.569119
vn 0.000000 0.822255 0.569119
vn 0.000000 0.109852 -0.993948
vn 0.000000 0.109852 -0.993948
vn 0.000000 0.109852 -0.993948
vn 0.000000 0.109852 -0.993948
vn 0.000000 -0.994121 -0.108276
vn 0.000000 -0.994121 -0.108276
vn 0.000000 -0.994121 -0.108276
vn 0.000000 -0.994121 -0.108276
vn 1.000000 0.000000 0.000000
vn 1.000000 0.000000 0.000000
vn 1.000000 0.000000 0.000000
vn 1.000000 0.000000 0.000000
vn -1.000000 0.000000 0.000000
vn -1.000000 0.000000 0.000000
vn -1.000000 0.000000 0.000000
vn -1.000000 0.000000 0.000000
s off
g pCube2 Mirror
usemtl lambert4SG
f 1/1/1 2/2/2 4/4/3 3/3/4
f 3/3/5 4/4/6 6/6/7 5/5/8
f 5/5/9 6/6/10 8/8/11 7/7/12
f 7/7/13 8/8/14 2/10/15 1/9/16
f 2/2/17 8/11/18 6/12/19 4/4/20
f 7/13/21 1/1/22 3/3/23 5/14/24
g default
v -3.751837 15.589378 -6.117510
v 3.751837 15.589378 -6.117510
v -3.751837 -0.022509 0.007257
v 3.751837 -0.022509 0.007257
v -2.136193 1.919267 -0.611830
v -2.136193 14.137959 -5.405398
v 2.039588 1.919267 -0.611830
v 2.039588 14.137959 -5.405398
v -3.500322 15.514655 -5.540956
v -3.751837 15.671301 -5.868431
v 3.751837 15.671301 -5.868431
v 3.500322 15.514655 -5.540956
v -3.751837 0.057208 0.249630
v -3.500322 0.371050 0.400098
v 3.500322 0.371050 0.400098
v 3.751837 0.057208 0.249630
v 2.224828 14.421305 -5.112019
v 2.039588 14.193416 -5.224864
v -2.328598 14.427976 -5.114636
v -2.136193 14.193416 -5.224864
v 2.217929 1.864147 -0.185666
v 2.039588 1.976788 -0.424575
v -2.321432 1.857726 -0.183147
v -2.136193 1.976788 -0.424575
vt 0.121504 0.951452
vt 0.098869 0.049318
vt 0.624137 0.032146
vt 0.107444 0.950661
vt 0.445101 0.032146
vt 0.438620 0.454248
vt 0.630521 0.454248
vt 0.445101 0.448181
vt 0.206312 0.052406
vt 0.084808 0.950661
vt 0.085187 0.048548
vt 0.398214 0.481296
vt 0.107822 0.048548
vt 0.121504 0.049318
vt 0.098869 0.951452
vt 0.477721 0.062183
vt 0.458875 0.921076
vt 0.594171 0.062000
vt 0.458875 0.504180
vt 0.593988 0.407338
vt 0.601350 0.504180
vt 0.601350 0.921076
vt 0.607671 0.930743
vt 0.601350 0.922968
vt 0.601350 0.506143
vt 0.607435 0.502300
vt 0.452310 0.930971
vt 0.458875 0.922968
vt 0.624137 0.448181
vt 0.452555 0.502081
vt 0.458875 0.506143
vt 0.477897 0.407162
vt 0.398214 0.052406
vt 0.206312 0.481296
vt 0.438621 0.025358
vt 0.630522 0.025358
vn 0.000000 -0.365215 -0.930923
vn 0.000000 -0.365215 -0.930923
vn 0.000000 -0.365215 -0.930923
vn 0.000000 -0.365215 -0.930923
vn 0.000000 0.365215 0.930923
vn 0.000000 0.365215 0.930923
vn 0.000000 0.365215 0.930923
vn 0.000000 0.365215 0.930923
vn -0.706624 0.258281 0.658766
vn -0.706624 0.258281 0.658767
vn -0.706624 0.258281 0.658767
vn -0.706624 0.258281 0.658767
vn 0.000000 0.902105 0.431516
vn 0.000000 0.902105 0.431516
vn 0.000000 0.902105 0.431516
vn 0.000000 0.902105 0.431516
vn 0.706624 0.258281 0.658767
vn 0.706624 0.258281 0.658766
vn 0.706624 0.258281 0.658767
vn 0.706624 0.258281 0.658767
vn 0.000000 -0.432318 0.901721
vn 0.000000 -0.432318 0.901721
vn 0.000000 -0.432318 0.901721
vn 0.000000 -0.432318 0.901721
vn 0.000000 0.949939 -0.312434
vn 0.000000 0.949939 -0.312434
vn 0.000000 0.949939 -0.312434
vn 0.000000 0.949939 -0.312434
vn 0.000000 -0.949939 0.312437
vn 0.000000 -0.949939 0.312437
vn 0.000000 -0.949939 0.312437
vn 0.000000 -0.949939 0.312437
vn 1.000000 0.000000 0.000000
vn 1.000000 0.000000 0.000000
vn 1.000000 0.000000 0.000000
vn 1.000000 0.000000 0.000000
vn -1.000000 0.000000 0.000000
vn -1.000000 0.000000 0.000000
vn -1.000000 0.000000 0.000000
vn -1.000000 0.000000 0.000000
vn -0.712828 0.256483 0.652758
vn -0.712828 0.256483 0.652758
vn -0.712828 0.256483 0.652758
vn -0.712828 0.256483 0.652758
vn -0.000602 -0.434477 0.900683
vn -0.000602 -0.434477 0.900683
vn -0.000602 -0.434477 0.900683
vn -0.000602 -0.434477 0.900683
vn 0.699392 0.261383 0.665229
vn 0.699392 0.261383 0.665229
vn 0.699392 0.261383 0.665229
vn 0.699392 0.261383 0.665229
vn -0.000538 0.900689 0.434465
vn -0.000538 0.900689 0.434465
vn -0.000538 0.900689 0.434465
vn -0.000538 0.900689 0.434465
vn 1.000000 -0.000000 0.000000
vn 1.000000 -0.000000 0.000000
vn 1.000000 -0.000000 0.000000
vn 1.000000 -0.000000 0.000000
vn 0.000000 0.955916 -0.293641
vn 0.000000 0.955916 -0.293641
vn 0.000000 0.955916 -0.293641
vn 0.000000 0.955916 -0.293641
vn -1.000000 -0.000000 0.000000
vn -1.000000 -0.000000 0.000000
vn -1.000000 -0.000000 0.000000
vn -1.000000 -0.000000 0.000000
vn 0.000000 -0.955915 0.293644
vn 0.000000 -0.955915 0.293644
vn 0.000000 -0.955915 0.293644
vn 0.000000 -0.955915 0.293644
vn 0.000000 0.365215 0.930923
vn 0.000000 0.365215 0.930923
vn 0.000000 0.365215 0.930923
vn 0.000000 0.365215 0.930923
vn 0.000000 0.365215 0.930923
vn 0.000000 0.365215 0.930923
vn 0.000000 0.365215 0.930923
vn 0.000000 0.365215 0.930923
s off
g Mirror
usemtl lambert3SG
f 11/48/25 9/23/26 10/47/27 12/26/28
usemtl lambert2SG
f 14/31/29 13/33/30 15/35/31 16/36/32
usemtl lambert3SG
f 17/17/33 18/50/34 21/21/35 22/43/36
f 18/50/37 17/17/38 20/19/39 19/49/40
f 19/49/41 20/19/42 23/22/43 24/20/44
f 22/43/45 21/21/46 24/20/47 23/22/48
f 9/29/49 18/24/50 19/18/51 10/15/52
f 21/25/53 11/16/54 12/28/55 24/27/56
f 19/18/57 24/27/58 12/28/59 10/15/60
f 9/29/61 11/16/62 21/25/63 18/24/64
f 25/37/65 26/38/66 30/39/67 29/40/68
f 26/38/69 25/37/70 27/41/71 28/42/72
f 28/42/73 27/41/74 31/44/75 32/45/76
f 29/40/77 30/39/78 32/45/79 31/44/80
f 28/42/81 32/45/82 13/33/83 14/31/84
f 32/45/85 30/39/86 15/35/87 13/33/88
f 30/39/89 26/38/90 16/36/91 15/35/92
f 26/38/93 28/42/94 14/31/95 16/36/96
f 23/22/97 20/19/98 17/17/99 22/43/100 29/46/101 31/34/102 27/32/103 25/30/104
g default
v -1.512682 0.015224 -3.107386
v 1.512682 0.015224 -3.107386
v -1.512682 6.375393 -2.424992
v 1.512682 6.375393 -2.424992
v -1.512682 6.472056 -2.564648
v 1.512682 6.472056 -2.564648
v -1.512682 0.033614 -3.276233
v 1.512682 0.033614 -3.276233
vt 0.704467 0.038521
vt 0.916092 0.037938
vt 0.705701 0.485972
vt 0.917326 0.485388
vt 0.705733 0.497852
vt 0.917359 0.497269
vt 0.706983 0.950967
vt 0.918609 0.950383
vt 0.707016 0.962847
vt 0.918641 0.962264
vt 0.927973 0.037924
vt 0.927776 0.491040
vt 0.692586 0.038573
vt 0.695282 0.491681
vn 0.000000 -0.106679 0.994294
vn 0.000000 -0.106679 0.994294
vn 0.000000 -0.106679 0.994294
vn 0.000000 -0.106679 0.994294
vn 0.000000 0.822255 0.569119
vn 0.000000 0.822255 0.569119
vn 0.000000 0.822255 0.569119
vn 0.000000 0.822255 0.569119
vn 0.000000 0.109852 -0.993948
vn 0.000000 0.109852 -0.993948
vn 0.000000 0.109852 -0.993948
vn 0.000000 0.109852 -0.993948
vn 0.000000 -0.994121 -0.108276
vn 0.000000 -0.994121 -0.108276
vn 0.000000 -0.994121 -0.108276
vn 0.000000 -0.994121 -0.108276
vn 1.000000 0.000000 0.000000
vn 1.000000 0.000000 0.000000
vn 1.000000 0.000000 0.000000
vn 1.000000 0.000000 0.000000
vn -1.000000 0.000000 0.000000
vn -1.000000 0.000000 0.000000
vn -1.000000 0.000000 0.000000
vn -1.000000 0.000000 0.000000
s off
g pCube2 Mirror
f 33/51/105 34/52/106 36/54/107 35/53/108
f 35/53/109 36/54/110 38/56/111 37/55/112
f 37/55/113 38/56/114 40/58/115 39/57/116
f 39/57/117 40/58/118 34/60/119 33/59/120
f 34/52/121 40/61/122 38/62/123 36/54/124
f 39/63/125 33/51/126 35/53/127 37/64/128
