# This file uses centimeters as units for non-parametric coordinates.

mtllib Cone.mtl
g default
v 2.285852 0.514000 -0.742718
v 1.944462 0.514000 -1.412734
v 1.412734 0.514000 -1.944462
v 0.742718 0.514000 -2.285852
v 0.000000 0.514000 -2.403487
v -0.742718 0.514000 -2.285852
v -1.412734 0.514000 -1.944461
v -1.944461 0.514000 -1.412734
v -2.285851 0.514000 -0.742718
v -2.403486 0.514000 0.000000
v -2.285851 0.514000 0.742718
v -1.944461 0.514000 1.412734
v -1.412734 0.514000 1.944461
v -0.742718 0.514000 2.285851
v -0.000000 0.514000 2.403486
v 0.742718 0.514000 2.285851
v 1.412733 0.514000 1.944461
v 1.944461 0.514000 1.412733
v 2.285851 0.514000 0.742718
v 2.403486 0.514000 0.000000
v 0.000000 6.717157 0.000000
v -0.494966 6.689041 0.359614
v -0.566797 6.688993 0.184164
v -0.592253 6.688902 0.000000
v -0.571195 6.688779 -0.185593
v -0.502523 6.688611 -0.365104
v -0.362526 6.688812 -0.498974
v -0.194533 6.689262 -0.598710
v 0.000000 6.688989 -0.635705
v 0.207516 6.688975 -0.638669
v 0.382395 6.688534 -0.526321
v 0.527999 6.688435 -0.383614
v 0.644811 6.688468 -0.209512
v 0.649717 6.687298 0.000000
v 0.606173 6.687865 0.196958
v 0.518107 6.687725 0.376427
v 0.387347 6.688293 0.533138
v 0.198894 6.688432 0.612132
v -0.000000 6.688546 0.641154
v -0.201329 6.688832 0.619626
v -0.367713 6.688947 0.506114
vt 0.274528 0.817050
vt 0.257841 0.784299
vt 0.231850 0.758308
vt 0.199098 0.741620
vt 0.162794 0.735870
vt 0.126489 0.741620
vt 0.093738 0.758307
vt 0.067746 0.784299
vt 0.051059 0.817050
vt 0.045309 0.853355
vt 0.051059 0.889660
vt 0.067746 0.922411
vt 0.093738 0.948402
vt 0.126489 0.965090
vt 0.162794 0.970840
vt 0.199098 0.965089
vt 0.231850 0.948402
vt 0.257841 0.922411
vt 0.274528 0.889660
vt 0.280279 0.853355
vt 0.666468 0.907313
vt 0.638264 0.883741
vt 0.612167 0.857856
vt 0.588371 0.829841
vt 0.567024 0.799917
vt 0.548317 0.768276
vt 0.532411 0.735139
vt 0.519441 0.700746
vt 0.509501 0.665358
vt 0.502694 0.629236
vt 0.499091 0.592656
vt 0.498710 0.555901
vt 0.501529 0.519252
vt 0.507498 0.482982
vt 0.516541 0.447354
vt 0.528605 0.412633
vt 0.543597 0.379072
vt 0.561387 0.346907
vt 0.581869 0.316385
vt 0.604897 0.287735
vt 0.630281 0.261150
vt 0.690189 0.101194
vt 0.812827 0.566344
vt 0.661702 0.107373
vt 0.665162 0.115781
vt 0.670622 0.123104
vt 0.677945 0.128997
vt 0.687157 0.131206
vt 0.696712 0.131282
vt 0.705843 0.128055
vt 0.714683 0.123068
vt 0.719307 0.114015
vt 0.721945 0.104399
vt 0.722591 0.094166
vt 0.717642 0.085191
vt 0.710951 0.077942
vt 0.702810 0.072528
vt 0.693424 0.069129
vt 0.683516 0.070432
vt 0.674398 0.074104
vt 0.666422 0.079973
vt 0.662187 0.088866
vt 0.813367 0.556874
vt 0.660417 0.098190
vt 0.814621 0.547109
vt 0.817174 0.537547
vt 0.820363 0.528253
vt 0.824246 0.519051
vt 0.829264 0.510428
vt 0.834748 0.502340
vt 0.840776 0.494537
vt 0.857128 0.658607
vt 0.847620 0.486914
vt 0.849480 0.651786
vt 0.842427 0.644746
vt 0.835658 0.637168
vt 0.830158 0.628644
vt 0.825313 0.620264
vt 0.821315 0.611592
vt 0.817911 0.602756
vt 0.815645 0.593639
vt 0.814070 0.584646
vt 0.813134 0.575606
vn 0.000000 -1.000000 0.000000
vn 0.000000 -1.000000 0.000000
vn 0.000000 -1.000000 0.000000
vn 0.000000 -1.000000 0.000000
vn 0.000000 -1.000000 0.000000
vn 0.000000 -1.000000 0.000000
vn 0.000000 -1.000000 0.000000
vn 0.000000 -1.000000 0.000000
vn 0.000000 -1.000000 0.000000
vn 0.000000 -1.000000 0.000000
vn 0.000000 -1.000000 0.000000
vn 0.000000 -1.000000 0.000000
vn 0.000000 -1.000000 0.000000
vn 0.000000 -1.000000 0.000000
vn 0.000000 -1.000000 0.000000
vn 0.000000 -1.000000 0.000000
vn 0.000000 -1.000000 0.000000
vn 0.000000 -1.000000 0.000000
vn 0.000000 -1.000000 0.000000
vn 0.000000 -1.000000 0.000000
vn 0.915626 0.272212 -0.295854
vn 0.770787 0.271466 -0.576363
vn 0.765533 0.289832 -0.574419
vn 0.911166 0.288226 -0.294452
vn 0.573077 0.271782 -0.773122
vn 0.570709 0.290019 -0.768232
vn 0.290434 0.273291 -0.917039
vn 0.287986 0.288843 -0.913036
vn -0.020319 0.273484 -0.961662
vn -0.022685 0.291313 -0.956359
vn -0.305773 0.276478 -0.911078
vn -0.305445 0.292318 -0.906231
vn -0.568163 0.276971 -0.774905
vn -0.565637 0.293249 -0.770753
vn -0.781592 0.278746 -0.558045
vn -0.778716 0.293333 -0.554578
vn -0.917411 0.279548 -0.283215
vn -0.913607 0.294853 -0.279972
vn -0.959772 0.280773 0.002245
vn -0.955289 0.295661 0.002589
vn -0.915884 0.280221 0.287460
vn -0.911947 0.295295 0.284873
vn -0.785395 0.278747 0.552679
vn -0.782846 0.293946 0.548405
vn -0.580476 0.275938 0.766097
vn -0.579543 0.292454 0.760658
vn -0.304251 0.275017 0.912029
vn -0.303900 0.290537 0.907322
vn 0.003877 0.273725 0.961800
vn 0.004272 0.291001 0.956713
vn 0.289042 0.273366 0.917456
vn 0.286427 0.290777 0.912912
vn 0.566660 0.273835 0.777117
vn 0.563956 0.289815 0.773279
vn 0.784279 0.273691 0.556776
vn 0.780833 0.291045 0.552805
vn 0.913227 0.274166 0.301412
vn 0.908202 0.291395 0.300428
vn 0.962012 0.272293 0.019727
vn 0.956738 0.290123 0.021939
vn 0.000807 1.000000 0.000301
s off
g pCone1 pCube1
usemtl lambert2SG
f 1/1/1 20/20/2 19/19/3 18/18/4 17/17/5 16/16/6 15/15/7 14/14/8 13/13/9 12/12/10 11/11/11 10/10/12 9/9/13 8/8/14 7/7/15 6/6/16 5/5/17 4/4/18 3/3/19 2/2/20
s 1
f 1/21/21 2/22/22 32/74/23 33/72/24
f 2/22/22 3/23/25 31/75/26 32/74/23
f 3/23/25 4/24/27 30/76/28 31/75/26
f 4/24/27 5/25/29 29/77/30 30/76/28
f 5/25/29 6/26/31 28/78/32 29/77/30
f 6/26/31 7/27/33 27/79/34 28/78/32
f 7/27/33 8/28/35 26/80/36 27/79/34
f 8/28/35 9/29/37 25/81/38 26/80/36
f 9/29/37 10/30/39 24/82/40 25/81/38
f 10/30/39 11/31/41 23/83/42 24/82/40
f 11/31/41 12/32/43 22/43/44 23/83/42
f 12/32/43 13/33/45 41/63/46 22/43/44
f 13/33/45 14/34/47 40/65/48 41/63/46
f 14/34/47 15/35/49 39/66/50 40/65/48
f 15/35/49 16/36/51 38/67/52 39/66/50
f 16/36/51 17/37/53 37/68/54 38/67/52
f 17/37/53 18/38/55 36/69/56 37/68/54
f 18/38/55 19/39/57 35/70/58 36/69/56
f 19/39/57 20/40/59 34/71/60 35/70/58
f 20/40/59 1/41/21 33/73/24 34/71/60
f 23/44/42 22/64/44 21/42/61
f 24/45/40 23/44/42 21/42/61
f 25/46/38 24/45/40 21/42/61
f 26/47/36 25/46/38 21/42/61
f 27/48/34 26/47/36 21/42/61
f 28/49/32 27/48/34 21/42/61
f 29/50/30 28/49/32 21/42/61
f 30/51/28 29/50/30 21/42/61
f 31/52/26 30/51/28 21/42/61
f 32/53/23 31/52/26 21/42/61
f 33/54/24 32/53/23 21/42/61
f 34/55/60 33/54/24 21/42/61
f 35/56/58 34/55/60 21/42/61
f 36/57/56 35/56/58 21/42/61
f 37/58/54 36/57/56 21/42/61
f 38/59/52 37/58/54 21/42/61
f 39/60/50 38/59/52 21/42/61
f 40/61/48 39/60/50 21/42/61
f 41/62/46 40/61/48 21/42/61
f 22/64/44 41/62/46 21/42/61
g default
v -2.638919 -0.040963 2.669852
v 2.648826 -0.040963 2.633691
v -2.638919 0.654598 2.669852
v 2.648826 0.654598 2.633691
v -2.606096 0.654598 -2.637947
v 2.618001 0.654598 -2.630645
v -2.606096 -0.040963 -2.637947
v 2.618001 -0.040963 -2.630645
v 2.306437 0.654598 -2.795741
v 2.306437 -0.040963 -2.795741
v 2.306437 -0.040963 2.795741
v 2.306437 0.654598 2.795741
v -2.242199 0.654598 -2.795741
v -2.242199 -0.040963 -2.795741
v -2.242199 -0.040963 2.795741
v -2.242199 0.654598 2.795741
v -2.795741 0.654598 -2.303459
v -2.795741 -0.040963 -2.303459
v -2.242199 -0.040963 -2.303459
v 2.306437 -0.040963 -2.303459
v 2.795741 -0.040963 -2.303459
v 2.795741 0.654598 -2.303459
v 2.306437 0.654598 -2.303459
v -2.242199 0.654598 -2.303459
v 2.795741 0.654598 2.286003
v 2.306437 0.654598 2.286003
v -2.242199 0.654598 2.286003
v -2.795741 0.654598 2.286003
v -2.795741 -0.040963 2.286003
v -2.242199 -0.040963 2.286003
v 2.306437 -0.040963 2.286003
v 2.795741 -0.040963 2.286003
vt 0.232524 0.024943
vt 0.407338 0.024943
vt 0.232524 0.199757
vt 0.407338 0.199757
vt 0.232524 0.374571
vt 0.407338 0.374571
vt 0.232524 0.549385
vt 0.407338 0.549385
vt 0.232524 0.724199
vt 0.407338 0.724199
vt 0.582152 0.024943
vt 0.582152 0.199757
vt 0.057710 0.024943
vt 0.057710 0.199757
vt 0.392041 0.374571
vt 0.392041 0.549385
vt 0.392041 0.024943
vt 0.392041 0.724199
vt 0.392041 0.199757
vt 0.249830 0.374571
vt 0.249830 0.549385
vt 0.249830 0.024943
vt 0.249830 0.724199
vt 0.249830 0.199757
vt 0.073101 0.199757
vt 0.232524 0.359180
vt 0.073101 0.024943
vt 0.232524 0.564776
vt 0.249830 0.564776
vt 0.392041 0.564776
vt 0.407338 0.564776
vt 0.566762 0.024943
vt 0.407338 0.359180
vt 0.566762 0.199757
vt 0.392041 0.359180
vt 0.249830 0.359180
vt 0.407338 0.215694
vt 0.423275 0.199757
vt 0.392041 0.215694
vt 0.249830 0.215694
vt 0.216588 0.199757
vt 0.232524 0.215694
vt 0.216588 0.024943
vt 0.232524 0.708263
vt 0.249830 0.708263
vt 0.392041 0.708263
vt 0.407338 0.708263
vt 0.423275 0.024943
vn -0.302460 0.000000 0.953162
vn -0.025448 0.000000 0.999676
vn -0.025448 0.000000 0.999676
vn -0.302460 0.000000 0.953162
vn 0.000000 1.000000 -0.000000
vn 0.000000 1.000000 -0.000000
vn 0.000000 1.000000 -0.000000
vn 0.000000 1.000000 -0.000000
vn -0.397831 0.000000 -0.917459
vn -0.032104 0.000000 -0.999485
vn -0.032104 0.000000 -0.999485
vn -0.397831 0.000000 -0.917459
vn 0.000000 -1.000000 0.000000
vn 0.000000 -1.000000 0.000000
vn 0.000000 -1.000000 0.000000
vn 0.000000 -1.000000 0.000000
vn 0.921142 0.000000 0.389226
vn 0.999558 0.000000 0.029744
vn 0.999558 0.000000 0.029744
vn 0.921142 0.000000 0.389226
vn -0.999503 0.000000 0.031517
vn -0.925723 0.000000 0.378204
vn -0.925723 0.000000 0.378204
vn -0.999503 0.000000 0.031517
vn 0.033949 0.000000 -0.999424
vn 0.468220 0.000000 -0.883612
vn 0.468220 0.000000 -0.883612
vn 0.033949 0.000000 -0.999424
vn 0.000000 -1.000000 -0.000000
vn 0.000000 -1.000000 -0.000000
vn 0.000000 -1.000000 -0.000000
vn 0.000000 -1.000000 -0.000000
vn 0.033114 0.000000 0.999452
vn 0.033114 0.000000 0.999452
vn 0.427797 0.000000 0.903875
vn 0.427797 0.000000 0.903875
vn 0.000000 1.000000 0.000000
vn 0.000000 1.000000 0.000000
vn 0.000000 1.000000 0.000000
vn 0.000000 1.000000 0.000000
vn -0.869908 0.000000 -0.493214
vn -0.999259 0.000000 -0.038486
vn -0.999259 0.000000 -0.038486
vn -0.869908 0.000000 -0.493214
vn 0.000000 -1.000000 0.000000
vn 0.000000 -1.000000 0.000000
vn 0.000000 -1.000000 0.000000
vn 0.000000 -1.000000 0.000000
vn 0.000000 -1.000000 0.000000
vn 0.000000 -1.000000 0.000000
vn 0.000000 -1.000000 0.000000
vn 0.000000 -1.000000 0.000000
vn 0.999347 0.000000 -0.036127
vn 0.999347 0.000000 -0.036127
vn 0.878713 0.000000 -0.477351
vn 0.878713 0.000000 -0.477351
vn 0.000000 1.000000 0.000000
vn 0.000000 1.000000 0.000000
vn 0.000000 1.000000 0.000000
vn 0.000000 1.000000 0.000000
vn 0.000000 1.000000 0.000000
vn 0.000000 1.000000 0.000000
vn 0.000000 1.000000 0.000000
vn 0.000000 1.000000 0.000000
s 1
g pCube1
usemtl lambert2SG
f 42/84/62 56/105/63 57/107/64 44/86/65
s 2
f 44/86/66 57/107/67 68/123/68 69/125/69
s 3
f 46/88/70 54/103/71 55/104/72 48/90/73
s 4
f 70/127/74 71/128/75 56/106/76 42/92/77
s 5
f 43/85/78 73/131/79 66/121/80 45/87/81
s 6
f 70/126/82 42/84/83 44/86/84 69/124/85
s 3
f 50/98/86 47/89/87 49/91/88 51/99/89
s 4
f 52/101/90 72/129/91 73/130/92 43/93/93
s 1
f 53/102/94 52/100/95 43/85/96 45/87/97
s 2
f 67/122/98 53/102/99 45/87/100 66/120/101
s 3
f 54/103/71 50/98/86 51/99/89 55/104/72
s 4
f 56/106/76 71/128/75 72/129/91 52/101/90
s 1
f 57/107/64 56/105/63 52/100/95 53/102/94
s 2
f 68/123/68 57/107/67 53/102/99 67/122/98
s 6
f 48/96/102 59/110/103 58/108/104 46/97/105
s 4
f 48/90/106 55/104/107 60/112/108 59/111/109
f 61/113/110 60/112/108 55/104/107 51/99/111
f 62/114/112 61/113/110 51/99/111 49/91/113
s 5
f 63/117/114 62/115/115 49/94/116 47/95/117
s 2
f 50/98/118 64/118/119 63/116/120 47/89/121
f 54/103/122 65/119/123 64/118/119 50/98/118
f 58/109/124 65/119/123 54/103/122 46/88/125
f 64/118/119 67/122/98 66/120/101 63/116/120
f 65/119/123 68/123/68 67/122/98 64/118/119
f 69/125/69 68/123/68 65/119/123 58/109/124
s 6
f 59/110/103 70/126/82 69/124/85 58/108/104
s 4
f 59/111/109 60/112/108 71/128/75 70/127/74
f 72/129/91 71/128/75 60/112/108 61/113/110
f 73/130/92 72/129/91 61/113/110 62/114/112
s 5
f 66/121/80 73/131/79 62/115/115 63/117/114
g default
v 2.285852 0.514000 -0.742718
v 1.944462 0.514000 -1.412734
v 1.412734 0.514000 -1.944462
v 0.742718 0.514000 -2.285852
v 0.000000 0.514000 -2.403487
v -0.742718 0.514000 -2.285852
v -1.412734 0.514000 -1.944461
v -1.944461 0.514000 -1.412734
v -2.285851 0.514000 -0.742718
v -2.403486 0.514000 0.000000
v -2.285851 0.514000 0.742718
v -1.944461 0.514000 1.412734
v -1.412734 0.514000 1.944461
v -0.742718 0.514000 2.285851
v -0.000000 0.514000 2.403486
v 0.742718 0.514000 2.285851
v 1.412733 0.514000 1.944461
v 1.944461 0.514000 1.412733
v 2.285851 0.514000 0.742718
v 2.403486 0.514000 0.000000
v 0.000000 6.717157 0.000000
v -0.494966 6.689041 0.359614
v -0.566797 6.688993 0.184164
v -0.592253 6.688902 0.000000
v -0.571195 6.688779 -0.185593
v -0.502523 6.688611 -0.365104
v -0.362526 6.688812 -0.498974
v -0.194533 6.689262 -0.598710
v 0.000000 6.688989 -0.635705
v 0.207516 6.688975 -0.638669
v 0.382395 6.688534 -0.526321
v 0.527999 6.688435 -0.383614
v 0.644811 6.688468 -0.209512
v 0.649717 6.687298 0.000000
v 0.606173 6.687865 0.196958
v 0.518107 6.687725 0.376427
v 0.387347 6.688293 0.533138
v 0.198894 6.688432 0.612132
v -0.000000 6.688546 0.641154
v -0.201329 6.688832 0.619626
v -0.367713 6.688947 0.506114
vt 0.274528 0.817050
vt 0.257841 0.784299
vt 0.231850 0.758308
vt 0.199098 0.741620
vt 0.162794 0.735870
vt 0.126489 0.741620
vt 0.093738 0.758307
vt 0.067746 0.784299
vt 0.051059 0.817050
vt 0.045309 0.853355
vt 0.051059 0.889660
vt 0.067746 0.922411
vt 0.093738 0.948402
vt 0.126489 0.965090
vt 0.162794 0.970840
vt 0.199098 0.965089
vt 0.231850 0.948402
vt 0.257841 0.922411
vt 0.274528 0.889660
vt 0.280279 0.853355
vt 0.666468 0.907313
vt 0.638264 0.883741
vt 0.612167 0.857856
vt 0.588371 0.829841
vt 0.567024 0.799917
vt 0.548317 0.768276
vt 0.532411 0.735139
vt 0.519441 0.700746
vt 0.509501 0.665358
vt 0.502694 0.629236
vt 0.499091 0.592656
vt 0.498710 0.555901
vt 0.501529 0.519252
vt 0.507498 0.482982
vt 0.516541 0.447354
vt 0.528605 0.412633
vt 0.543597 0.379072
vt 0.561387 0.346907
vt 0.581869 0.316385
vt 0.604897 0.287735
vt 0.630281 0.261150
vt 0.690189 0.101194
vt 0.812827 0.566344
vt 0.661702 0.107373
vt 0.665162 0.115781
vt 0.670622 0.123104
vt 0.677945 0.128997
vt 0.687157 0.131206
vt 0.696712 0.131282
vt 0.705843 0.128055
vt 0.714683 0.123068
vt 0.719307 0.114015
vt 0.721945 0.104399
vt 0.722591 0.094166
vt 0.717642 0.085191
vt 0.710951 0.077942
vt 0.702810 0.072528
vt 0.693424 0.069129
vt 0.683516 0.070432
vt 0.674398 0.074104
vt 0.666422 0.079973
vt 0.662187 0.088866
vt 0.813367 0.556874
vt 0.660417 0.098190
vt 0.814621 0.547109
vt 0.817174 0.537547
vt 0.820363 0.528253
vt 0.824246 0.519051
vt 0.829264 0.510428
vt 0.834748 0.502340
vt 0.840776 0.494537
vt 0.857128 0.658607
vt 0.847620 0.486914
vt 0.849480 0.651786
vt 0.842427 0.644746
vt 0.835658 0.637168
vt 0.830158 0.628644
vt 0.825313 0.620264
vt 0.821315 0.611592
vt 0.817911 0.602756
vt 0.815645 0.593639
vt 0.814070 0.584646
vt 0.813134 0.575606
vn 0.000000 -1.000000 0.000000
vn 0.000000 -1.000000 0.000000
vn 0.000000 -1.000000 0.000000
vn 0.000000 -1.000000 0.000000
vn 0.000000 -1.000000 0.000000
vn 0.000000 -1.000000 0.000000
vn 0.000000 -1.000000 0.000000
vn 0.000000 -1.000000 0.000000
vn 0.000000 -1.000000 0.000000
vn 0.000000 -1.000000 0.000000
vn 0.000000 -1.000000 0.000000
vn 0.000000 -1.000000 0.000000
vn 0.000000 -1.000000 0.000000
vn 0.000000 -1.000000 0.000000
vn 0.000000 -1.000000 0.000000
vn 0.000000 -1.000000 0.000000
vn 0.000000 -1.000000 0.000000
vn 0.000000 -1.000000 0.000000
vn 0.000000 -1.000000 0.000000
vn 0.000000 -1.000000 0.000000
vn 0.915626 0.272212 -0.295854
vn 0.770787 0.271466 -0.576363
vn 0.765533 0.289832 -0.574419
vn 0.911166 0.288226 -0.294452
vn 0.573077 0.271782 -0.773122
vn 0.570709 0.290019 -0.768232
vn 0.290434 0.273291 -0.917039
vn 0.287986 0.288843 -0.913036
vn -0.020319 0.273484 -0.961662
vn -0.022685 0.291313 -0.956359
vn -0.305773 0.276478 -0.911078
vn -0.305445 0.292318 -0.906231
vn -0.568163 0.276971 -0.774905
vn -0.565637 0.293249 -0.770753
vn -0.781592 0.278746 -0.558045
vn -0.778716 0.293333 -0.554578
vn -0.917411 0.279548 -0.283215
vn -0.913607 0.294853 -0.279972
vn -0.959772 0.280773 0.002245
vn -0.955289 0.295661 0.002589
vn -0.915884 0.280221 0.287460
vn -0.911947 0.295295 0.284873
vn -0.785395 0.278747 0.552679
vn -0.782846 0.293946 0.548405
vn -0.580476 0.275938 0.766097
vn -0.579543 0.292454 0.760658
vn -0.304251 0.275017 0.912029
vn -0.303900 0.290537 0.907322
vn 0.003877 0.273725 0.961800
vn 0.004272 0.291001 0.956713
vn 0.289042 0.273366 0.917456
vn 0.286427 0.290777 0.912912
vn 0.566660 0.273835 0.777117
vn 0.563956 0.289815 0.773279
vn 0.784279 0.273691 0.556776
vn 0.780833 0.291045 0.552805
vn 0.913227 0.274166 0.301412
vn 0.908202 0.291395 0.300428
vn 0.962012 0.272293 0.019727
vn 0.956738 0.290123 0.021939
vn 0.000807 1.000000 0.000301
s off
g pCone1 pCube1
f 74/132/126 93/151/127 92/150/128 91/149/129 90/148/130 89/147/131 88/146/132 87/145/133 86/144/134 85/143/135 84/142/136 83/141/137 82/140/138 81/139/139 80/138/140 79/137/141 78/136/142 77/135/143 76/134/144 75/133/145
s 1
f 74/152/146 75/153/147 105/205/148 106/203/149
f 75/153/147 76/154/150 104/206/151 105/205/148
f 76/154/150 77/155/152 103/207/153 104/206/151
f 77/155/152 78/156/154 102/208/155 103/207/153
f 78/156/154 79/157/156 101/209/157 102/208/155
f 79/157/156 80/158/158 100/210/159 101/209/157
f 80/158/158 81/159/160 99/211/161 100/210/159
f 81/159/160 82/160/162 98/212/163 99/211/161
f 82/160/162 83/161/164 97/213/165 98/212/163
f 83/161/164 84/162/166 96/214/167 97/213/165
f 84/162/166 85/163/168 95/174/169 96/214/167
f 85/163/168 86/164/170 114/194/171 95/174/169
f 86/164/170 87/165/172 113/196/173 114/194/171
f 87/165/172 88/166/174 112/197/175 113/196/173
f 88/166/174 89/167/176 111/198/177 112/197/175
f 89/167/176 90/168/178 110/199/179 111/198/177
f 90/168/178 91/169/180 109/200/181 110/199/179
f 91/169/180 92/170/182 108/201/183 109/200/181
f 92/170/182 93/171/184 107/202/185 108/201/183
f 93/171/184 74/172/146 106/204/149 107/202/185
f 96/175/167 95/195/169 94/173/186
f 97/176/165 96/175/167 94/173/186
f 98/177/163 97/176/165 94/173/186
f 99/178/161 98/177/163 94/173/186
f 100/179/159 99/178/161 94/173/186
f 101/180/157 100/179/159 94/173/186
f 102/181/155 101/180/157 94/173/186
f 103/182/153 102/181/155 94/173/186
f 104/183/151 103/182/153 94/173/186
f 105/184/148 104/183/151 94/173/186
f 106/185/149 105/184/148 94/173/186
f 107/186/185 106/185/149 94/173/186
f 108/187/183 107/186/185 94/173/186
f 109/188/181 108/187/183 94/173/186
f 110/189/179 109/188/181 94/173/186
f 111/190/177 110/189/179 94/173/186
f 112/191/175 111/190/177 94/173/186
f 113/192/173 112/191/175 94/173/186
f 114/193/171 113/192/173 94/173/186
f 95/195/169 114/193/171 94/173/186
